<svg id="logo1_Image" data-name="logo1 Image" xmlns="http://www.w3.org/2000/svg" viewBox="0 0 590.68 350.95"><defs><style>.cls-1{fill:#a31970;}.cls-2{fill:#eb8209;}.cls-3{fill:#725ca3;}.cls-4{fill:#81bc5a;}.cls-5{fill:#fac107;}.cls-6{fill:#f9c107;}.cls-7{fill:#1995ca;}</style></defs><path class="cls-1" d="M295.78,147.72c5.54-8.31,11.65-15.41,19.29-21.16,23.76-17.91,62.07-12.21,78.22,12.11C403.44,154,403.44,171,400,188.25c-4.19,21-17.84,36.49-31.56,51.66-19,21-41.23,38.12-65.21,53.07-3.28,2-5.91,2.4-9.53.53-31-16-59.61-35.12-81.76-62.57-13.9-17.23-23.13-36.53-22.77-59.26.38-23.25,11.09-40.63,31.91-50.75s39.76-4.39,57.08,9.33C284.54,135.31,290,141.31,295.78,147.72Z"/><path class="cls-2" d="M233.24,269.67l29.22,20.23c-2,2.63-4.67,2.63-6.89,3.15-68.15,15.86-132.11,6.91-189.88-34C32.9,235.82,11,204.5,2.64,164.61c-1.46-7-1.61-14.19-2.55-21.27-.46-3.4.88-5.15,3.93-6.47a237.23,237.23,0,0,1,89.14-19.66c1.8,0,3.59-.4,5.39-.62a1.51,1.51,0,0,0,.09.84A94.65,94.65,0,0,0,100,137.76c5.23,31.66,20.24,58.38,42.42,81.11,16.88,17.29,36.85,30.36,58.89,40.15C211.55,263.58,222,267.77,233.24,269.67Z"/><path class="cls-2" d="M492.81,117.43a226.78,226.78,0,0,1,68.3,9.93,262.21,262.21,0,0,1,25.27,9.35c3.19,1.36,4.41,3.15,4.29,6.73-1.12,32.56-12.9,61.09-33.66,85.68-37.55,44.51-87.1,65.18-144,70.42-26.46,2.43-52.51-.19-78.23-6.63-1.71-.43-3.67-.43-5.62-2.68l25.26-19.55a15,15,0,0,0,2.94-.23c28.87-8.23,55.48-20.75,78.66-40.25a167.13,167.13,0,0,0,42.76-53.74C488,157.94,491.89,138,492.81,117.43Z"/><path class="cls-3" d="M222.77,58.11c8.8-9.92,16.87-20.49,27-29.16A215.6,215.6,0,0,1,291,1.23a8.77,8.77,0,0,1,8.88-.05c25.56,13.1,47.89,30.1,65,53.47.88,1.2,1.91,2.29,2.88,3.44-.05.26-.1.51-.17.77a39,39,0,0,0-3.69,1.41c-25.67,12.78-47.7,30-65.21,52.89-1.27,1.65-2.55,5.73-5.64,1.34a150.24,150.24,0,0,0-32.28-33c-11.75-9-23.89-17.38-37.86-22.67A4.79,4.79,0,0,1,222.77,58.11Z"/><path class="cls-4" d="M222.77,58.11a4.79,4.79,0,0,0,.17.75c-11.45,16.26-19.68,33.9-23.17,53.6a111.75,111.75,0,0,0-18.54,19.78c-12.12-5.16-24.83-8.36-37.7-10.83-14.8-2.83-29.76-4.51-44.89-4a1.51,1.51,0,0,1-.09-.84c.23-27.09,8.28-51.75,22.59-74.67,3.1-5,6.7-6.12,11.89-5.73,24.4,1.85,48.43,5.6,71.48,14.16C210.7,52.65,216.69,55.51,222.77,58.11Z"/><path class="cls-4" d="M367.62,58.86c.07-.26.12-.51.17-.77a218.58,218.58,0,0,1,39.3-13.69c3.26-.8.91-.14,13.61-2.89a294.09,294.09,0,0,1,41.11-5.32,6.55,6.55,0,0,1,3.16.4,7.69,7.69,0,0,1,3.39,3.14c15.12,23.5,23.77,49,24.17,77.12-10.7,1.08-21.47,1.07-32.17,2.47-16.86,2.22-33.07,6.81-49.18,11.93A48.86,48.86,0,0,0,403,120.31a55.43,55.43,0,0,0-5.83-5,62.43,62.43,0,0,0-6.57-4.36c-.17-.91-.45-2.29-.83-4a128.46,128.46,0,0,0-8.17-24.6,124.12,124.12,0,0,0-14-23.5Z"/><path class="cls-5" d="M411.18,131.25c16.11-5.12,32.32-9.71,49.18-11.93,10.7-1.4,21.47-1.39,32.17-2.47a.41.41,0,0,1,.28.59c-.92,20.57-4.82,40.5-14.05,59A167.13,167.13,0,0,1,436,230.2c-23.18,19.5-49.79,32-78.66,40.25a15,15,0,0,1-2.94.23c5.59-5.52,11.33-10.92,16.92-16.44,8.38-8.28,15-16.05,17.77-19.3,5.08-6,39.13-46.25,28.89-87.05A64.43,64.43,0,0,0,411.18,131.25Z"/><path class="cls-6" d="M98.64,117.43c15.13-.53,30.09,1.15,44.89,4,12.87,2.47,25.58,5.67,37.7,10.83-17.92,36.73-7.06,69.13,15.23,99.65,9.47,13,21.07,24,33.35,34.26a47.53,47.53,0,0,1,3.43,3.52c-11.21-1.9-21.69-6.09-32-10.65-22-9.79-42-22.86-58.89-40.15-22.18-22.73-37.19-49.45-42.42-81.11A94.65,94.65,0,0,1,98.64,117.43Z"/><path class="cls-7" d="M367.62,58.86c11.6,15.62,19.65,32.8,23,52.07-11.87-5.48-24.06-9.25-37.4-8.82-23.72.78-40.4,13.3-53.82,31.51-1.07,1.46-2.05,3-3.07,4.49-2.33-.13-3-2.08-4.13-3.36C279,120,264.69,107,244.43,103.26c-14.21-2.66-27.79-.81-40.27,7-1.39.87-2.93,1.48-4.39,2.21,3.49-19.7,11.72-37.34,23.17-53.6,14,5.29,26.11,13.71,37.86,22.67a150.24,150.24,0,0,1,32.28,33c3.09,4.39,4.37.31,5.64-1.34,17.51-22.86,39.54-40.11,65.21-52.89A39,39,0,0,1,367.62,58.86Z"/></svg>